<?xml version="1.0" encoding="UTF-8"?>
<svg version="1.1" xmlns="http://www.w3.org/2000/svg" width="500" height="500">
<path d="M0 0 C165 0 330 0 500 0 C500 165 500 330 500 500 C335 500 170 500 0 500 C0 335 0 170 0 0 Z " fill="#12323a" transform="translate(0,0)"/>
<path d="M0 0 C165 0 330 0 500 0 C500 165 500 330 500 500 C335 500 170 500 0 500 C0 335 0 170 0 0 Z M197.36523438 9.390625 C194.74581356 10.06548817 192.11655479 10.68932736 189.484375 11.3125 C176.47357138 14.46083909 164.24019937 18.59333192 152 24 C151.21173828 24.34401855 150.42347656 24.68803711 149.61132812 25.04248047 C132.25203733 32.6915517 115.82470978 42.13127465 101 54 C100.16726562 54.64195313 99.33453125 55.28390625 98.4765625 55.9453125 C91.65032861 61.26417613 85.26083114 67.03418184 79 73 C78.39961914 73.57169922 77.79923828 74.14339844 77.18066406 74.73242188 C68.82472708 82.74756432 61.13881779 90.97656148 54.25878906 100.296875 C53.02930604 101.96034931 51.77783788 103.60527552 50.5234375 105.25 C25.13153806 139.08908565 10.1893308 179.95113152 5.26635742 221.75512695 C5.09758818 223.17752221 4.91458206 224.59836028 4.7121582 226.01635742 C3.68087418 233.74319564 3.79919225 241.53211495 3.8125 249.3125 C3.81376892 250.07210022 3.81503784 250.83170044 3.81634521 251.61431885 C3.93616069 289.24925138 12.4320344 325.10590081 29 359 C29.33966797 359.69851074 29.67933594 360.39702148 30.02929688 361.11669922 C40.77110987 382.92538006 55.17247332 402.50944615 72 420 C72.89960449 420.94045166 72.89960449 420.94045166 73.81738281 421.89990234 C82.14516033 430.56087478 90.62543842 438.63436911 100.31298828 445.75732422 C101.97101549 446.97864961 103.60876498 448.22377916 105.24609375 449.47265625 C131.15012458 468.91704022 161.68167604 482.2154166 193 490 C194.1240625 490.28617187 195.248125 490.57234375 196.40625 490.8671875 C225.73695468 497.51456683 257.7475651 498.37631254 287.36035156 493.43554688 C289.87955929 493.01987294 292.40180175 492.65525368 294.9296875 492.296875 C334.23009488 486.25155911 372.14058643 467.63153082 403 443 C403.5357666 442.57992676 404.0715332 442.15985352 404.62353516 441.72705078 C419.93381667 429.66279938 434.39154033 415.4327381 445.82177734 399.62255859 C447.01016421 397.98600262 448.23017469 396.37738712 449.45703125 394.76953125 C472.21666746 364.49056652 486.61148006 328.1532363 493 291 C493.1753125 290.03465332 493.350625 289.06930664 493.53125 288.07470703 C495.72355619 275.66037023 496.23964251 263.32891332 496.25 250.75 C496.25067474 250.00566711 496.25134949 249.26133423 496.25204468 248.4944458 C496.23296537 235.14356303 495.30144862 222.1699038 493 209 C492.83371094 208.02450195 492.66742188 207.04900391 492.49609375 206.04394531 C482.24523334 147.63302407 448.94813303 90.43720291 400.68603516 55.24169922 C398.94806168 53.96174945 397.24494373 52.64376562 395.54296875 51.31640625 C341.88957969 9.97956014 263.26817698 -7.82673688 197.36523438 9.390625 Z " fill="#647774" transform="translate(0,0)"/>
<path d="M0 0 C1.35544922 -0.05607422 1.35544922 -0.05607422 2.73828125 -0.11328125 C9.24847076 0.82660041 14.14771589 5.28775504 18.9375 9.5 C20.08270175 10.48771193 21.22854412 11.47468154 22.375 12.4609375 C22.93703125 12.9465918 23.4990625 13.43224609 24.078125 13.93261719 C26.33461006 15.86733405 28.63240495 17.74859641 30.9375 19.625 C41.41270298 28.16091613 51.86198204 36.72569343 62.15576172 45.47998047 C66.35078182 49.04278404 70.60664278 52.52575575 74.875 56 C78.56764364 59.03617366 82.20871788 62.1309997 85.8515625 65.2265625 C89.2680954 68.12494823 92.71254838 70.984051 96.1875 73.8125 C100.22733452 77.1007374 104.21833277 80.43981461 108.1875 83.8125 C113.96292544 88.71795844 119.80742099 93.53278665 125.6875 98.3125 C132.13282718 103.55168408 138.52172912 108.84789575 144.85107422 114.22607422 C148.26770732 117.12469839 151.71236997 119.98390579 155.1875 122.8125 C159.7920358 126.56037798 164.32769191 130.38233444 168.8515625 134.2265625 C173.15259753 137.87530785 177.51096097 141.44894727 181.88671875 145.0078125 C184.95525787 147.53283075 187.97789812 150.10734769 191 152.6875 C195.43601837 156.47042692 199.95353551 160.11778643 204.5625 163.6875 C211.58056051 169.13098301 218.28308472 174.91106998 224.93701172 180.79150391 C226.14719305 181.84302827 227.37408392 182.87551622 228.61376953 183.89208984 C229.23751465 184.40594238 229.86125977 184.91979492 230.50390625 185.44921875 C231.0666626 185.90385498 231.62941895 186.35849121 232.20922852 186.8269043 C235.55696107 190.19122347 236.0031806 193.50401897 236.0625 198.125 C235.95867594 203.80763697 235.15055468 206.81988852 231.6875 211.3125 C227.40376495 215.37655633 223.76041173 217.03611177 217.9375 217.8125 C208.84673631 217.49085287 201.48139315 208.73513581 194.953125 203.11328125 C190.27533965 199.08549369 185.47719636 195.20587892 180.6875 191.3125 C174.24217282 186.07331592 167.85327088 180.77710425 161.52392578 175.39892578 C158.10729268 172.50030161 154.66263003 169.64109421 151.1875 166.8125 C146.5829642 163.06462202 142.04730809 159.24266556 137.5234375 155.3984375 C134.1069046 152.50005177 130.66245162 149.640949 127.1875 146.8125 C123.14766457 143.52426186 119.15669573 140.18515239 115.1875 136.8125 C110.4183879 132.76237401 105.60837568 128.76897887 100.7578125 124.81640625 C91.17888111 117.00458052 81.63520048 109.15277163 72.21923828 101.14501953 C68.02421818 97.58221596 63.76835722 94.09924425 59.5 90.625 C55.80735636 87.58882634 52.16628212 84.4940003 48.5234375 81.3984375 C44.22240247 77.74969215 39.86403903 74.17605273 35.48828125 70.6171875 C32.41973883 68.09216654 29.39720739 65.51753269 26.375 62.9375 C20.63047337 58.04238217 14.73794338 53.35612586 8.78125 48.72265625 C6.06561836 46.60706948 3.37016368 44.46964188 0.6875 42.3125 C-2.19375994 43.64692396 -4.52599954 45.15547506 -6.96484375 47.18359375 C-7.65239746 47.75247314 -8.33995117 48.32135254 -9.04833984 48.9074707 C-9.7748877 49.51550537 -10.50143555 50.12354004 -11.25 50.75 C-12.00490723 51.37672607 -12.75981445 52.00345215 -13.53759766 52.64916992 C-18.64349529 56.89545067 -23.71984715 61.17651101 -28.77905273 65.47827148 C-32.97434474 69.04200001 -37.231021 72.52524965 -41.5 76 C-44.63049666 78.57396392 -47.72422461 81.18819086 -50.8125 83.8125 C-55.66209381 87.93351634 -60.56410806 91.98241354 -65.5 96 C-68.63049666 98.57396392 -71.72422461 101.18819086 -74.8125 103.8125 C-79.66209381 107.93351634 -84.56410806 111.98241354 -89.5 116 C-92.63049851 118.57396545 -95.72415634 121.18826903 -98.8125 123.8125 C-105.46283651 129.46107944 -112.21371006 134.98073508 -118.984375 140.484375 C-124.53294283 145.00661815 -130.02164795 149.59133279 -135.47607422 154.22607422 C-139.76446877 157.86428872 -144.11008257 161.42756717 -148.47265625 164.9765625 C-152.31813202 168.13969112 -156.11257455 171.36157139 -159.8984375 174.59570312 C-162.64070724 176.93107748 -165.4198658 179.16753984 -168.3125 181.3125 C-166.9824292 181.33437378 -166.9824292 181.33437378 -165.62548828 181.35668945 C-162.28897924 181.41828319 -158.95322286 181.49252882 -155.6171875 181.57495117 C-154.18207141 181.60790355 -152.74683495 181.63602463 -151.31152344 181.65893555 C-139.39058747 181.85429259 -129.30747001 182.39341951 -120.296875 190.97265625 C-117.1377453 194.69769304 -115.14759142 198.81237632 -113.3125 203.3125 C-112.99539062 202.755625 -112.67828125 202.19875 -112.3515625 201.625 C-105.81356935 190.9330333 -96.42695958 184.3411149 -84.3125 181.3125 C-72.79629478 180.30292442 -63.30246921 181.13704643 -54 188.4375 C-48.49268017 193.62151563 -44.77767872 200.71458093 -44.3125 208.3125 C-44.250625 209.10011719 -44.18875 209.88773438 -44.125 210.69921875 C-43.57098373 222.83563767 -48.20271187 234.52252062 -56.3125 243.53515625 C-62.80639953 249.73914955 -71.16987401 254.75274739 -80.3125 255.3125 C-81.18390625 255.374375 -82.0553125 255.43625 -82.953125 255.5 C-91.94716838 255.8689864 -99.95276307 254.23465563 -107.1875 248.625 C-110.35491747 245.64747567 -112.31819458 242.21933563 -114.26953125 238.36328125 C-115.37220342 236.0959229 -115.37220342 236.0959229 -117.3125 233.3125 C-117.84037109 234.18261719 -117.84037109 234.18261719 -118.37890625 235.0703125 C-125.34562126 246.09336549 -133.64613196 251.29918278 -146.3125 254.3125 C-149.38084806 254.56565467 -152.42312733 254.54888262 -155.5 254.5 C-156.35770996 254.49282959 -157.21541992 254.48565918 -158.09912109 254.47827148 C-164.54972169 254.39911941 -170.99360231 254.1739649 -177.4375 253.875 C-178.29625732 253.83592529 -179.15501465 253.79685059 -180.03979492 253.7565918 C-186.0638315 253.43683425 -186.0638315 253.43683425 -188.3125 252.3125 C-188.6875 249.5625 -188.6875 249.5625 -188.3125 246.3125 C-187.36375 245.69375 -186.415 245.075 -185.4375 244.4375 C-181.90051761 242.03235197 -181.65315002 240.86272966 -180.78173828 236.83642578 C-179.814601 231.63441473 -178.96814592 226.42065189 -178.1875 221.1875 C-177.91921387 219.39348755 -177.91921387 219.39348755 -177.64550781 217.56323242 C-176.48064691 209.40532327 -175.76379063 201.55838255 -176.3125 193.3125 C-177.6325 192.6525 -178.9525 191.9925 -180.3125 191.3125 C-181.63701172 192.45525391 -181.63701172 192.45525391 -182.98828125 193.62109375 C-211.03955462 217.7772295 -211.03955462 217.7772295 -220.12109375 217.66015625 C-225.32662433 216.83432341 -229.20000253 213.51282622 -232.6875 209.75 C-235.12840212 206.08864682 -236.60152546 203.39766275 -236.625 198.9375 C-236.64175781 198.20789063 -236.65851563 197.47828125 -236.67578125 196.7265625 C-235.75418933 190.60243554 -232.30006458 186.98566591 -227.8125 183 C-227.28132568 182.525625 -226.75015137 182.05125 -226.20288086 181.5625 C-221.95346617 177.79702014 -217.58103837 174.18714963 -213.16015625 170.625 C-210.00628495 168.06383153 -206.90659063 165.44522703 -203.8125 162.8125 C-198.96320754 158.69113508 -194.0608831 154.64257927 -189.125 150.625 C-185.99450334 148.05103608 -182.90077539 145.43680914 -179.8125 142.8125 C-174.96429875 138.69266701 -170.06404155 134.64454036 -165.12890625 130.62890625 C-161.97464808 128.03462734 -158.8604702 125.39643735 -155.75 122.75 C-151.19965684 118.88008198 -146.58417165 115.11290103 -141.90234375 111.40234375 C-138.28119031 108.48029685 -134.74295431 105.46428514 -131.19921875 102.44921875 C-127.76678391 99.53245487 -124.30657185 96.65556574 -120.8125 93.8125 C-116.77266863 90.52426517 -112.78157935 87.18528574 -108.8125 83.8125 C-103.96290619 79.69148366 -99.06089194 75.64258646 -94.125 71.625 C-90.99450334 69.05103608 -87.90077539 66.43680914 -84.8125 63.8125 C-79.95933401 59.68844815 -75.05437035 55.63584463 -70.11328125 51.6171875 C-67.04474213 49.09216925 -64.02210188 46.51765231 -61 43.9375 C-56.56398397 40.15457508 -52.04649357 36.50717263 -47.4375 32.9375 C-41.69839775 28.48676764 -36.19324449 23.81132249 -30.72949219 19.02807617 C-25.35709628 14.32828842 -19.8769429 9.78425527 -14.3125 5.3125 C-13.46945313 4.59191406 -12.62640625 3.87132812 -11.7578125 3.12890625 C-7.9419994 0.29447639 -4.67616084 0.12566769 0 0 Z " fill="#FDFDFD" transform="translate(252.3125,5.6875)"/>
<path d="M0 0 C0.91523438 -0.04898438 1.83046875 -0.09796875 2.7734375 -0.1484375 C6.71220581 0.57456929 9.18823822 2.28400681 11.625 5.375 C12.940259 8.29372503 13.63582385 11.25368817 14.3125 14.375 C14.51254639 15.21353516 14.71259277 16.05207031 14.91870117 16.91601562 C15.31868681 18.60444917 15.70891435 20.29522715 16.08886719 21.98828125 C16.57082286 24.13381798 17.07844327 26.27045058 17.6015625 28.40625 C19.625 36.80257009 19.625 36.80257009 19.625 40.375 C23.1530747 37.2289182 25.2321002 33.76329978 27.33984375 29.59765625 C28.03314243 28.26624443 28.72650374 26.93486523 29.41992188 25.60351562 C30.49326242 23.52037629 31.56344261 21.43565934 32.6315918 19.34985352 C33.67233674 17.32412209 34.72436948 15.30455102 35.77734375 13.28515625 C36.08896957 12.66729752 36.4005954 12.04943878 36.72166443 11.41285706 C38.83121765 7.37755855 41.13883916 4.31324307 44.625 1.375 C47.53046731 0.92250919 49.75048201 0.75832215 52.625 0.875 C53.32367188 0.87242187 54.02234375 0.86984375 54.7421875 0.8671875 C59.18766925 0.95106451 62.04356621 1.74488456 65.625 4.375 C65.27567798 7.51889817 64.69534625 8.31728 62.1875 10.375 C58.30077627 14.92531071 58.286034 19.55405014 57.625 25.375 C57.44066406 26.63699219 57.25632812 27.89898437 57.06640625 29.19921875 C55.45238281 40.60177921 55.42267428 51.87615501 55.625 63.375 C56.945 64.035 58.265 64.695 59.625 65.375 C59.625 67.025 59.625 68.675 59.625 70.375 C53.65217325 72.95231565 48.85322868 73.84717343 42.375 73.75 C41.19164062 73.76740234 41.19164062 73.76740234 39.984375 73.78515625 C36.37960036 73.76688881 34.22176785 73.73196236 31.078125 71.8515625 C30.59859375 71.36429687 30.1190625 70.87703125 29.625 70.375 C29.8125 68.625 29.8125 68.625 30.625 66.375 C31.8315625 65.4778125 31.8315625 65.4778125 33.0625 64.5625 C38.3516745 60.04735104 38.14663668 52.05786686 38.75 45.5 C38.83636719 44.65308594 38.92273438 43.80617187 39.01171875 42.93359375 C39.54664214 37.38907038 39.70376255 31.94463745 39.625 26.375 C39.20726318 27.16036133 38.78952637 27.94572266 38.35913086 28.75488281 C36.77491625 31.73050434 35.18855432 34.70496155 33.60083008 37.67871094 C32.92030887 38.95430818 32.2405919 40.23033487 31.56176758 41.50683594 C19.14097981 64.85902019 19.14097981 64.85902019 15.625 68.375 C13 68 13 68 10.625 67.375 C7.59219868 59.09526633 5.81961956 50.60480429 4 42 C3.53268792 39.80845089 3.06392372 37.61722597 2.59341431 35.42636108 C2.17060673 33.45493121 1.75193657 31.48261533 1.33349609 29.51025391 C0.67823775 26.36914324 0.67823775 26.36914324 -0.375 23.375 C-2.61572507 32.42760484 -4.26524369 41.45527512 -5.5625 50.6875 C-5.73974609 51.91662109 -5.91699219 53.14574219 -6.09960938 54.41210938 C-6.52963941 57.39907475 -6.95469848 60.386653 -7.375 63.375 C-6.40820312 63.80425781 -6.40820312 63.80425781 -5.421875 64.2421875 C-3.375 65.375 -3.375 65.375 -2.625 67.5 C-2.5425 68.11875 -2.46 68.7375 -2.375 69.375 C-7.46177738 74.03336834 -13.72406343 72.88819704 -20.25 72.875 C-21.51714844 72.90335937 -22.78429687 72.93171875 -24.08984375 72.9609375 C-34.48506493 72.98279916 -34.48506493 72.98279916 -38.1328125 70.21875 C-42.6335012 64.51055946 -43.1375691 57.71038472 -44.3984375 50.71484375 C-45.51712611 46.88892871 -46.34967575 44.99214558 -49.375 42.375 C-52.37367381 41.67595641 -55.3016732 41.44723631 -58.375 41.375 C-58.49104679 44.8122166 -58.56219508 48.24893086 -58.625 51.6875 C-58.65851563 52.66396484 -58.69203125 53.64042969 -58.7265625 54.64648438 C-58.74589844 56.05317383 -58.74589844 56.05317383 -58.765625 57.48828125 C-58.7970459 58.78439331 -58.7970459 58.78439331 -58.82910156 60.10668945 C-58.57400201 62.56167294 -58.57400201 62.56167294 -56.35058594 64.18041992 C-55.3726709 64.77173706 -55.3726709 64.77173706 -54.375 65.375 C-54.6875 67.75 -54.6875 67.75 -55.375 70.375 C-58.78797648 72.65031766 -60.05630905 72.63174679 -64.06640625 72.640625 C-65.73026367 72.64449219 -65.73026367 72.64449219 -67.42773438 72.6484375 C-68.58595703 72.64070313 -69.74417969 72.63296875 -70.9375 72.625 C-72.09958984 72.63273437 -73.26167969 72.64046875 -74.45898438 72.6484375 C-75.56693359 72.64585937 -76.67488281 72.64328125 -77.81640625 72.640625 C-78.83420166 72.63836914 -79.85199707 72.63611328 -80.90063477 72.63378906 C-83.375 72.375 -83.375 72.375 -85.375 70.375 C-85 67.25 -85 67.25 -84.375 64.375 C-82.395 63.715 -80.415 63.055 -78.375 62.375 C-78.26542969 61.63378906 -78.15585938 60.89257812 -78.04296875 60.12890625 C-77.88441406 59.07574219 -77.72585937 58.02257812 -77.5625 56.9375 C-77.38332031 55.74253906 -77.20414063 54.54757813 -77.01953125 53.31640625 C-76.47780346 50.00365871 -75.83390376 46.73099934 -75.15966797 43.44360352 C-73.67703464 35.95710043 -73.03318143 28.63354317 -72.9375 21 C-72.9154248 20.08992188 -72.89334961 19.17984375 -72.87060547 18.2421875 C-72.73902321 13.24595802 -72.73902321 13.24595802 -75.40234375 9.2734375 C-76.05332031 8.97695312 -76.70429688 8.68046875 -77.375 8.375 C-77.0625 6 -77.0625 6 -76.375 3.375 C-72.42004821 0.73836547 -68.98603737 1.06933144 -64.39453125 1.07421875 C-63.50771164 1.06993362 -62.62089203 1.0656485 -61.7071991 1.06123352 C-59.82848971 1.05548874 -57.94975809 1.05499105 -56.07104492 1.05932617 C-53.21558879 1.06246908 -50.3611861 1.03908875 -47.50585938 1.01367188 C-45.67708463 1.01139699 -43.84830712 1.01069626 -42.01953125 1.01171875 C-40.75034599 0.99790413 -40.75034599 0.99790413 -39.45552063 0.98381042 C-33.52881578 1.0293543 -27.37074225 1.59324978 -22.81135559 5.82695007 C-18.95357213 10.3493707 -18.071399 13.16601757 -18.1640625 18.9296875 C-18.63032941 24.33492983 -20.15573407 28.65097735 -24.3125 32.25 C-30.25735294 36.375 -30.25735294 36.375 -34.375 36.375 C-34.375 37.035 -34.375 37.695 -34.375 38.375 C-33.26125 38.6534375 -33.26125 38.6534375 -32.125 38.9375 C-28.32229987 40.92527507 -26.86516352 43.48761691 -25.375 47.375 C-24.57558819 50.76644402 -23.88161012 54.14970922 -23.28125 57.58203125 C-22.67813636 60.5077638 -22.67813636 60.5077638 -20.31835938 61.54956055 C-19.67705078 61.82195557 -19.03574219 62.09435059 -18.375 62.375 C-16.69146502 53.711539 -15.0244908 45.04500872 -13.375 36.375 C-13.1996875 35.45525391 -13.024375 34.53550781 -12.84375 33.58789062 C-12.4089896 31.28909502 -11.9834574 28.98885741 -11.5625 26.6875 C-11.21251953 24.79451172 -11.21251953 24.79451172 -10.85546875 22.86328125 C-10.36194369 19.28020906 -10.11462604 15.98493047 -10.375 12.375 C-12.73332772 9.90291204 -12.73332772 9.90291204 -15.375 8.375 C-15.1875 6.5625 -15.1875 6.5625 -14.375 4.375 C-9.78747015 1.02734308 -5.58920211 0.20352837 0 0 Z " fill="#F9FAFB" transform="translate(283.375,186.625)"/>
<path d="M0 0 C3.57923229 4.85752954 4.32567858 9.0292261 4 15 C2 17 2 17 -0.3125 17.5 C-4.34236136 16.75025835 -5.60375855 14.17340084 -8 11 C-11.27021959 9.36489021 -14.84733751 9.77371701 -18.4375 9.75 C-19.21416016 9.729375 -19.99082031 9.70875 -20.79101562 9.6875 C-25.0068947 9.53622993 -25.0068947 9.53622993 -28.68701172 11.28344727 C-30.89505378 14.1701605 -31.12716683 17.68159027 -31.6875 21.1875 C-31.81705078 21.93708984 -31.94660156 22.68667969 -32.08007812 23.45898438 C-32.39740538 25.30418359 -32.70013291 27.151883 -33 29 C-28.55101401 29.10286673 -24.34308758 29.02791788 -20 28 C-17.70855353 25.58095559 -17.00114769 23.11822433 -16 20 C-15.34 19.34 -14.68 18.68 -14 18 C-11.875 18.375 -11.875 18.375 -10 19 C-9.72374773 29.65105989 -9.52670101 39.54611993 -15 49 C-16.65 48.67 -18.3 48.34 -20 48 C-20.495 43.545 -20.495 43.545 -21 39 C-25.29 39 -29.58 39 -34 39 C-34.91357293 43.56786466 -35.11609566 47.69915093 -35.0625 52.3125 C-35.05798828 53.05306641 -35.05347656 53.79363281 -35.04882812 54.55664062 C-35.03712175 56.37112899 -35.01918898 58.18557534 -35 60 C-31.96764223 61.51617889 -29.12074987 61.21034412 -25.75 61.25 C-23.79320312 61.28867187 -23.79320312 61.28867187 -21.796875 61.328125 C-16.68144719 60.88605099 -13.45682899 59.64109195 -10.0234375 55.7734375 C-9.47945313 54.98195313 -8.93546875 54.19046875 -8.375 53.375 C-5.51091229 49.22005585 -5.51091229 49.22005585 -2.9140625 48.1015625 C-2.28242188 48.06804687 -1.65078125 48.03453125 -1 48 C1 50 1 50 1.30859375 53.1640625 C0.97183201 57.35013885 -0.18841079 60.62066206 -1.9375 64.375 C-2.35418945 65.31666016 -2.35418945 65.31666016 -2.77929688 66.27734375 C-4.81121575 70.81121575 -4.81121575 70.81121575 -6 72 C-7.67275346 72.07449101 -9.34871928 72.07810796 -11.02294922 72.0534668 C-12.62999222 72.03300545 -12.62999222 72.03300545 -14.26950073 72.01213074 C-15.43611237 71.99136978 -16.602724 71.97060883 -17.8046875 71.94921875 C-18.99474396 71.9303511 -20.18480042 71.91148346 -21.41091919 71.89204407 C-23.93463681 71.85007065 -26.45830958 71.80532452 -28.98193359 71.75805664 C-32.85114517 71.68793234 -36.72037102 71.63356746 -40.58984375 71.58007812 C-43.03647539 71.53742586 -45.48309092 71.49383706 -47.9296875 71.44921875 C-49.09225067 71.43453049 -50.25481384 71.41984222 -51.4526062 71.40470886 C-52.53027252 71.38161148 -53.60793884 71.3585141 -54.71826172 71.3347168 C-55.66788788 71.31837692 -56.61751404 71.30203705 -57.59591675 71.28520203 C-60 71 -60 71 -63 69 C-62.875 66.75 -62.875 66.75 -62 64 C-61.02675781 63.41734375 -60.05351562 62.8346875 -59.05078125 62.234375 C-55.25391315 59.4535702 -55.02608136 58.07501808 -54.3125 53.5 C-54.15225342 52.53126953 -54.15225342 52.53126953 -53.98876953 51.54296875 C-53.75908847 50.12688003 -53.54184823 48.70873151 -53.33544922 47.2890625 C-52.98317681 44.88520069 -52.59005429 42.49033374 -52.19140625 40.09375 C-50.56301889 30.07260789 -49.44575508 20.14477085 -49 10 C-49.64453125 9.72414063 -50.2890625 9.44828125 -50.953125 9.1640625 C-53 8 -53 8 -53.75 5.375 C-53.8325 4.59125 -53.915 3.8075 -54 3 C-51.10101379 0.51672126 -49.30801276 -0.37880489 -45.49438477 -0.44824219 C-44.60989151 -0.47126404 -43.72539825 -0.49428589 -42.81410217 -0.51800537 C-41.86611252 -0.52753235 -40.91812286 -0.53705933 -39.94140625 -0.546875 C-38.96010239 -0.56719788 -37.97879852 -0.58752075 -36.96775818 -0.60845947 C-34.89423528 -0.64863624 -32.8205666 -0.68181282 -30.74682617 -0.70849609 C-27.57748814 -0.74980465 -24.40913503 -0.81245163 -21.24023438 -0.87890625 C-19.2239806 -0.91531688 -17.20770445 -0.95051352 -15.19140625 -0.984375 C-14.24544083 -1.0019989 -13.2994754 -1.0196228 -12.32484436 -1.03778076 C-3.46755542 -1.14168801 -3.46755542 -1.14168801 0 0 Z " fill="#FAFBFB" transform="translate(462,269)"/>
<path d="M0 0 C2.51074219 0.16162109 2.51074219 0.16162109 4.82324219 2.59912109 C6.78561611 6.7419105 7.77382213 10.55772205 7.51074219 15.16162109 C5.51074219 18.16162109 5.51074219 18.16162109 3.19824219 18.72412109 C-0.78858565 17.88966875 -2.05831019 15.29626408 -4.48925781 12.16162109 C-8.32455698 10.88318804 -11.98959045 10.86007074 -15.98925781 10.78662109 C-16.76140625 10.74923828 -17.53355469 10.71185547 -18.32910156 10.67333984 C-20.86742015 10.5780418 -20.86742015 10.5780418 -24.48925781 11.16162109 C-27.82574612 14.68457981 -28.10596948 18.77609402 -28.67675781 23.47412109 C-28.91458984 25.35550781 -28.91458984 25.35550781 -29.15722656 27.27490234 C-29.32158203 28.70382812 -29.32158203 28.70382812 -29.48925781 30.16162109 C-25.04027183 30.26448782 -20.83234539 30.18953897 -16.48925781 29.16162109 C-14.19781135 26.74257668 -13.4904055 24.27984542 -12.48925781 21.16162109 C-11.82925781 20.50162109 -11.16925781 19.84162109 -10.48925781 19.16162109 C-8.36425781 19.53662109 -8.36425781 19.53662109 -6.48925781 20.16162109 C-6.18718643 29.77756019 -6.42780606 39.27155448 -10.48925781 48.16162109 C-11.14925781 48.82162109 -11.80925781 49.48162109 -12.48925781 50.16162109 C-16.0249721 49.62590681 -16.0249721 49.62590681 -17.48925781 48.16162109 C-17.82259115 45.82828776 -18.15592448 43.49495443 -18.48925781 41.16162109 C-19.54904714 39.87549434 -19.54904714 39.87549434 -21.99316406 40.06396484 C-23.0025 40.07556641 -24.01183594 40.08716797 -25.05175781 40.09912109 C-26.06367188 40.10814453 -27.07558594 40.11716797 -28.11816406 40.12646484 C-28.900625 40.13806641 -29.68308594 40.14966797 -30.48925781 40.16162109 C-31.65507699 42.49325945 -31.61831391 43.88315591 -31.62207031 46.47802734 C-31.62335938 47.32429688 -31.62464844 48.17056641 -31.62597656 49.04248047 C-31.62017578 50.36989258 -31.62017578 50.36989258 -31.61425781 51.72412109 C-31.618125 52.61292969 -31.62199219 53.50173828 -31.62597656 54.41748047 C-31.62404297 55.68495117 -31.62404297 55.68495117 -31.62207031 56.97802734 C-31.62094238 57.75605713 -31.61981445 58.53408691 -31.61865234 59.33569336 C-31.68832383 61.18100645 -31.68832383 61.18100645 -30.48925781 62.16162109 C-27.91217226 62.31618678 -25.3803326 62.39334953 -22.80175781 62.41162109 C-22.09341797 62.43224609 -21.38507813 62.45287109 -20.65527344 62.47412109 C-15.8780954 62.50940957 -12.58068365 61.87727509 -8.48925781 59.16162109 C-6.74692326 56.90962406 -5.46489117 54.60492955 -4.07910156 52.12255859 C-2.48925781 50.16162109 -2.48925781 50.16162109 0.13183594 49.32568359 C0.916875 49.27154297 1.70191406 49.21740234 2.51074219 49.16162109 C3.51074219 50.16162109 3.51074219 50.16162109 3.88574219 53.91162109 C3.85724909 59.80019538 1.79203705 68.88032624 -2.48925781 73.16162109 C-4.16201128 73.2361121 -5.8379771 73.23972906 -7.51220703 73.21508789 C-9.11925003 73.19462654 -9.11925003 73.19462654 -10.75875854 73.17375183 C-11.92537018 73.15299088 -13.09198181 73.13222992 -14.29394531 73.11083984 C-15.48400177 73.0919722 -16.67405823 73.07310455 -17.900177 73.05366516 C-20.42389463 73.01169174 -22.94756739 72.96694561 -25.47119141 72.91967773 C-29.34040298 72.84955343 -33.20962883 72.79518855 -37.07910156 72.74169922 C-39.5257332 72.69904695 -41.97234874 72.65545816 -44.41894531 72.61083984 C-45.58150848 72.59615158 -46.74407166 72.58146332 -47.94186401 72.56632996 C-49.01953033 72.54323257 -50.09719666 72.52013519 -51.20751953 72.49633789 C-52.15714569 72.47999802 -53.10677185 72.46365814 -54.08517456 72.44682312 C-56.48925781 72.16162109 -56.48925781 72.16162109 -59.48925781 70.16162109 C-59.15925781 68.18162109 -58.82925781 66.20162109 -58.48925781 64.16162109 C-56.50925781 63.50162109 -54.52925781 62.84162109 -52.48925781 62.16162109 C-51.61502795 56.64231655 -50.7430746 51.12266145 -49.87402344 45.60253906 C-49.54397493 43.50874147 -49.21210935 41.41523045 -48.87988281 39.32177734 C-47.45122662 30.27063825 -47.45122662 30.27063825 -46.48925781 21.16162109 C-46.42351562 20.36626953 -46.35777344 19.57091797 -46.29003906 18.75146484 C-46.18281604 16.47759728 -46.13481975 14.41093955 -46.48925781 12.16162109 C-48.46827355 9.93184114 -48.46827355 9.93184114 -50.48925781 8.16162109 C-50.32775577 4.77007814 -49.90629024 3.57865352 -47.48925781 1.16162109 C-45.61871338 0.88314819 -45.61871338 0.88314819 -43.31835938 0.84277344 C-42.4569635 0.82290375 -41.59556763 0.80303406 -40.70806885 0.78256226 C-39.30811676 0.76523544 -39.30811676 0.76523544 -37.87988281 0.74755859 C-36.92031677 0.72819244 -35.96075073 0.70882629 -34.97210693 0.68887329 C-31.89458191 0.6289848 -28.81701731 0.58271546 -25.73925781 0.53662109 C-23.67934548 0.49843862 -21.61944906 0.45938673 -19.55957031 0.41943359 C-10.05095184 0.24100602 -10.05095184 0.24100602 -5.71081543 0.19622803 C-3.80631793 0.16656019 -1.90268855 0.08813181 0 0 Z " fill="#F9FBFB" transform="translate(268.4892578125,267.83837890625)"/>
<path d="M0 0 C1.15628906 -0.02513672 1.15628906 -0.02513672 2.3359375 -0.05078125 C5.37358729 0.4313031 6.5081929 1.04924713 8.625 3.3125 C9.63001995 6.08155495 10.39110081 8.65005032 11.0625 11.5 C11.27003906 12.32790039 11.47757812 13.15580078 11.69140625 14.00878906 C13.36227572 20.8206018 14.74045486 27.68805977 16.125 34.5625 C17.53083427 41.4684966 18.96834423 48.32788544 21.0625 55.0625 C21.41183594 56.19171875 21.76117188 57.3209375 22.12109375 58.484375 C24.00055771 62.0187436 26.18469083 63.36283373 29.625 65.3125 C29.3125 67.6875 29.3125 67.6875 28.625 70.3125 C25.21202352 72.58781766 23.94369095 72.56924679 19.93359375 72.578125 C18.26973633 72.58199219 18.26973633 72.58199219 16.57226562 72.5859375 C15.41404297 72.57820313 14.25582031 72.57046875 13.0625 72.5625 C11.90041016 72.57023437 10.73832031 72.57796875 9.54101562 72.5859375 C8.43306641 72.58335937 7.32511719 72.58078125 6.18359375 72.578125 C5.16579834 72.57586914 4.14800293 72.57361328 3.09936523 72.57128906 C0.625 72.3125 0.625 72.3125 -1.375 70.3125 C-1.1875 67.8125 -1.1875 67.8125 -0.375 65.3125 C0.615 64.6525 1.605 63.9925 2.625 63.3125 C2.48450482 61.83281676 2.33745174 60.35375484 2.1875 58.875 C2.10628906 58.05128906 2.02507812 57.22757812 1.94140625 56.37890625 C1.83569185 54.32587975 1.83569185 54.32587975 0.625 53.3125 C-2.65680789 52.97968508 -5.95347906 52.98765454 -9.25 52.9375 C-10.17425781 52.90011719 -11.09851563 52.86273438 -12.05078125 52.82421875 C-14.58685449 52.79109152 -16.88661691 52.81776753 -19.375 53.3125 C-21.71851437 55.93862742 -22.24122723 57.50986337 -22.8125 60.9375 C-22.59174629 63.48462481 -22.59174629 63.48462481 -20.375 65.125 C-19.715 65.516875 -19.055 65.90875 -18.375 66.3125 C-18.625 68.1875 -18.625 68.1875 -19.375 70.3125 C-22.17655219 72.06855931 -24.35415809 72.56785858 -27.6328125 72.578125 C-28.81810547 72.58199219 -28.81810547 72.58199219 -30.02734375 72.5859375 C-30.84332031 72.57820313 -31.65929687 72.57046875 -32.5 72.5625 C-33.73556641 72.57410156 -33.73556641 72.57410156 -34.99609375 72.5859375 C-35.78371094 72.58335937 -36.57132812 72.58078125 -37.3828125 72.578125 C-38.10098145 72.57586914 -38.81915039 72.57361328 -39.55908203 72.57128906 C-41.375 72.3125 -41.375 72.3125 -43.375 70.3125 C-43.5 68 -43.5 68 -42.375 65.3125 C-40.73486328 64.33642578 -40.73486328 64.33642578 -38.6953125 63.3203125 C-33.15566624 59.97490963 -30.95768315 55.15002524 -28.125 49.5 C-27.57924316 48.44989746 -27.03348633 47.39979492 -26.47119141 46.31787109 C-24.75163171 42.99299338 -23.06352614 39.65322426 -21.375 36.3125 C-20.24357145 34.12298221 -19.11077955 31.93416834 -17.9765625 29.74609375 C-16.89900162 27.64427381 -15.82340986 25.54144292 -14.75 23.4375 C-14.25338867 22.47094482 -13.75677734 21.50438965 -13.24511719 20.50854492 C-10.58430088 15.19659303 -8.51778059 10.06456818 -7.03759766 4.30419922 C-5.72615986 0.36215442 -3.8167395 0.0190203 0 0 Z " fill="#FAFBFB" transform="translate(313.375,267.6875)"/>
<path d="M0 0 C0.886875 -0.0825 1.77375 -0.165 2.6875 -0.25 C5 0 5 0 7.1875 2.125 C10.4609026 7.31729377 11.57967222 11.85547448 11 18 C9.875 20 9.875 20 8 21 C5.1875 21.25 5.1875 21.25 2 20 C0.27282373 17.80371412 -1.12788728 15.55741872 -2.5078125 13.12890625 C-4.18604831 10.73456458 -5.2703937 9.97338791 -8 9 C-11.99137585 8.32957359 -15.03565407 8.39728379 -18.5 10.5625 C-20.59311615 13.96381375 -20.55147685 16.07072743 -20 20 C-16.42742164 25.85978461 -10.67612428 28.07169601 -4.73046875 30.98632812 C1.88569157 34.42651132 6.59536818 38.78610453 9 46 C9.7857822 52.53100947 8.82911524 57.6096086 5 63 C-0.61287006 69.60427374 -8.21240221 72.50350838 -16.69140625 73.3828125 C-26.11412061 73.66806117 -33.52229261 72.54485168 -41 66.625 C-45.01426052 61.35628307 -45.51734338 56.41505791 -45 50 C-43.8125 47.5 -43.8125 47.5 -42 46 C-39.625 45.25 -39.625 45.25 -37 46 C-34.98618246 48.47012061 -33.52911266 51.21250282 -32 54 C-29.13018624 58.60943506 -29.13018624 58.60943506 -25 62 C-20.63599957 62.62926598 -16.98853198 62.47367157 -13 60.5625 C-10.24080659 58.59500949 -10.24080659 58.59500949 -9.625 55.3125 C-10.10579927 51.06543977 -12.00426796 48.86493247 -15 46 C-17.35752297 44.34446647 -19.84075036 42.98957163 -22.375 41.625 C-28.93070582 37.9116893 -34.53708724 33.92582551 -38 27 C-38.69453302 19.99513842 -39.01829539 13.56002271 -34.69921875 7.71875 C-24.83195448 -2.2619311 -13.18176671 -2.24370497 0 0 Z " fill="#F9FAFA" transform="translate(391,269)"/>
<path d="M0 0 C4.13789731 1.75840471 5.79258562 4.54090295 7.62890625 8.60546875 C9.26811345 13.2023873 9.46035192 17.4675523 9.375 22.3125 C9.36484863 23.14628174 9.35469727 23.98006348 9.34423828 24.83911133 C9.0868268 35.10663687 7.25593782 43.38965905 0 51 C-3.94865749 54.61020113 -8.25632451 54.56634524 -13.40625 54.4140625 C-16 54 -16 54 -19 51.875 C-25.81776688 42.07446011 -26.05393308 31.94074424 -24.3125 20.375 C-22.91256342 13.60048172 -20.27341344 6.95342237 -15.4375 1.875 C-10.32176981 -0.91539829 -5.69676139 -0.95336748 0 0 Z " fill="#1D4C58" transform="translate(179,197)"/>
<path d="M0 0 C5.34014771 0.16338616 9.05830981 1.67250313 12.875 5.4375 C18.50963698 13.26250291 17.84979782 24.25641069 16.875 33.4375 C15.42854222 40.88919544 12.84694682 47.51604021 6.875 52.4375 C1.59960216 55.58244871 -4.06873659 56.51746306 -10.125 55.4375 C-11.89453125 54.26171875 -11.89453125 54.26171875 -13.125 52.4375 C-14.69682888 43.58711215 -12.6347621 33.95947464 -11.3125 25.1875 C-11.14741943 24.08720459 -10.98233887 22.98690918 -10.81225586 21.85327148 C-7.34879739 0.21764731 -7.34879739 0.21764731 0 0 Z " fill="#1D4C58" transform="translate(103.125,195.5625)"/>
<path d="M0 0 C10.74665238 -0.77129084 10.74665238 -0.77129084 15.25 2 C17.50378152 5.86362546 17.81311934 8.63390269 17 13 C15.76553082 15.83927911 14.87161407 17.42948897 12.28125 19.125 C9.33313458 20.255784 6.89799529 20.19343468 3.75 20.125 C2.67234375 20.10695312 1.5946875 20.08890625 0.484375 20.0703125 C-0.33546875 20.04710937 -1.1553125 20.02390625 -2 20 C-1.85953745 17.04132082 -1.71287776 14.08317736 -1.5625 11.125 C-1.52318359 10.28324219 -1.48386719 9.44148437 -1.44335938 8.57421875 C-1.40146484 7.76855469 -1.35957031 6.96289062 -1.31640625 6.1328125 C-1.27974854 5.38918457 -1.24309082 4.64555664 -1.20532227 3.87939453 C-1 2 -1 2 0 0 Z " fill="#1E4C58" transform="translate(230,197)"/>
<path d="M0 0 C0.99 0.33 1.98 0.66 3 1 C3.94921875 3.73046875 3.94921875 3.73046875 4.6875 7.1875 C5.06455078 8.87939453 5.06455078 8.87939453 5.44921875 10.60546875 C6 14 6 14 6 20 C1.38 20 -3.24 20 -8 20 C-7.29260504 16.46302519 -6.84071052 14.30330382 -5.37109375 11.23046875 C-5.05849609 10.56982422 -4.74589844 9.90917969 -4.42382812 9.22851562 C-4.09833984 8.55498047 -3.77285156 7.88144531 -3.4375 7.1875 C-2.9434668 6.14819336 -2.9434668 6.14819336 -2.43945312 5.08789062 C-1.63127749 3.38955052 -0.81631623 1.69444231 0 0 Z " fill="#26525D" transform="translate(307,291)"/>
</svg>
